<svg width="81" height="80" viewBox="0 0 81 80" fill="none" xmlns="http://www.w3.org/2000/svg">
<g id="experience">
<path id="Vector" fill-rule="evenodd" clip-rule="evenodd" d="M50.3039 77.6865C51.0846 77.8729 51.8652 77.9848 52.6459 77.9848C54.2072 77.9848 55.7314 77.5746 57.1441 76.7916L63.5753 73.1001C65.8801 71.795 67.5158 69.6696 68.1849 67.0967C68.8913 64.5611 68.5195 61.8764 67.2184 59.6018C66.1032 57.7001 65.8429 55.9848 66.4749 54.9035C67.1069 53.8221 68.7054 53.1882 70.8987 53.1882C76.3262 53.1882 80.75 48.751 80.75 43.3069V36.7442C80.75 31.3002 76.3262 26.8629 70.8987 26.8629C68.7054 26.8629 67.1069 26.229 66.4749 25.1476C65.8429 24.0663 66.1403 22.351 67.2184 20.4493C68.5195 18.1748 68.8541 15.5273 68.1849 12.9544C67.4786 10.3816 65.8429 8.25614 63.5753 6.95106L57.1812 3.25954C52.9433 0.723953 47.4043 2.17819 44.8764 6.5036L44.4675 7.21207C42.2742 11.0155 39.263 11.0155 37.0697 7.21207L36.6236 6.46631C34.0957 2.17819 28.5567 0.723953 24.3559 3.22225L17.9247 6.91377C15.6199 8.21885 13.9842 10.3443 13.3151 12.9171C12.6459 15.4527 12.9805 18.1375 14.2816 20.412C15.3968 22.3137 15.6571 24.029 15.0251 25.1103C14.3931 26.1917 12.7946 26.8256 10.6013 26.8256C5.17379 26.8256 0.75 31.2629 0.75 36.7069V43.2696C0.75 48.7137 5.17379 53.1509 10.6013 53.1509C12.7946 53.1509 14.3931 53.7848 15.0251 54.8662C15.6571 55.9476 15.3597 57.6628 14.2816 59.5645C12.9805 61.8391 12.6459 64.4865 13.3151 67.0594C14.0214 69.6323 15.6571 71.7577 17.9247 73.0628L24.3188 76.7543C26.3634 77.9848 28.7797 78.3204 31.1217 77.6865C33.4266 77.0899 35.3597 75.5984 36.5864 73.5102L36.9954 72.8018C39.1887 68.9984 42.1998 68.9984 44.3931 72.8018L44.8392 73.5475C46.066 75.5984 47.9991 77.0526 50.3039 77.6865ZM41.2563 21.2533C33.9857 21.2533 28.0918 27.0417 28.0918 34.1821C28.0918 37.4894 30.8929 41.5533 33.0713 44.7137C33.6787 45.595 34.2377 46.406 34.674 47.1108C35.7463 48.8427 36.2833 50.9878 36.7333 52.7853C36.9287 53.5658 37.1077 54.2809 37.307 54.868C37.9652 56.8074 39.0752 58.7467 41.2563 58.7467C43.4375 58.7467 44.5475 56.8074 45.2057 54.868C45.405 54.2809 45.584 53.5658 45.7794 52.7852C46.2294 50.9877 46.7664 48.8426 47.8386 47.1108C48.2847 46.3807 48.8652 45.5363 49.4965 44.6182C51.6599 41.4717 54.4209 37.4562 54.4209 34.1821C54.4209 27.0417 48.5269 21.2533 41.2563 21.2533Z" fill="url(#paint0_linear_4_38)"/>
</g>
<defs>
<linearGradient id="paint0_linear_4_38" x1="19.7244" y1="41.2667" x2="70.0343" y2="85.2195" gradientUnits="userSpaceOnUse">
<stop stop-color="#9E65C6"/>
<stop offset="1" stop-color="#D8EFE3"/>
</linearGradient>
</defs>
</svg>
