<svg width="81" height="90" viewBox="0 0 81 90" fill="none" xmlns="http://www.w3.org/2000/svg">
<g id="privacy">
<path id="Vector" fill-rule="evenodd" clip-rule="evenodd" d="M40.25 90C39.2562 90 38.2625 89.8746 37.3101 89.5817C15.8194 83.5992 0.25 63.3084 0.25 41.3027V22.9366C0.25 18.2509 3.60406 13.189 7.91048 11.39L30.9747 1.85124C36.9788 -0.617081 43.5626 -0.617081 49.5253 1.85124L72.5895 11.39C76.8959 13.189 80.25 18.2509 80.25 22.9366V41.3027C80.25 63.2666 64.6392 83.5574 43.1899 89.5817C42.2375 89.8746 41.2438 90 40.25 90ZM32.9639 55.727C33.5647 56.3386 34.3258 56.624 35.0869 56.624C35.848 56.624 36.6091 56.3386 37.21 55.727L54.4349 38.196C55.5966 37.0136 55.5966 35.0567 54.4349 33.8744C53.2732 32.692 51.3505 32.692 50.1888 33.8744L35.0869 49.2446L30.7607 44.8415C29.599 43.6591 27.6762 43.6591 26.5145 44.8415C25.3528 46.0238 25.3528 47.9808 26.5145 49.1631L32.9639 55.727Z" fill="url(#paint0_linear_4_40)"/>
</g>
<defs>
<linearGradient id="paint0_linear_4_40" x1="19.2244" y1="46.5" x2="76.6686" y2="88.879" gradientUnits="userSpaceOnUse">
<stop stop-color="#9E65C6"/>
<stop offset="1" stop-color="#D8EFE3"/>
</linearGradient>
</defs>
</svg>
