<svg width="81" height="90" viewBox="0 0 81 90" fill="none" xmlns="http://www.w3.org/2000/svg">
<g id="icons">
<path id="Vector 8" d="M33.25 61L43.25 50.9401V33" stroke="url(#paint0_linear_1_28)" stroke-width="6" stroke-linecap="round" stroke-linejoin="round"/>
<g id="Ellipse 11">
<mask id="path-2-inside-1_1_28" fill="white">
<path d="M42.195 23.9972C42.1709 23.4604 42.5862 23.0032 43.1236 23.0003C47.5331 22.9766 51.8708 24.1938 55.6563 26.5273C59.7196 29.0321 62.9641 32.7107 64.9794 37.098C66.9948 41.4852 67.6905 46.3839 66.9785 51.1748C66.2665 55.9656 64.1789 60.4333 60.9796 64.0129C57.7803 67.5926 53.613 70.1234 49.0048 71.2853C44.3965 72.4472 39.5542 72.188 35.0902 70.5405C30.6262 68.893 26.7411 65.9312 23.926 62.0297C21.2957 58.3842 19.7101 54.0713 19.336 49.5723C19.2924 49.0476 19.701 48.6016 20.2269 48.577C20.7542 48.5523 21.1993 48.9607 21.2449 49.4866C21.6011 53.5992 23.0574 57.5399 25.4631 60.874C28.0542 64.4652 31.6303 67.1914 35.7393 68.7078C39.8482 70.2243 44.3053 70.4628 48.547 69.3933C52.7887 68.3239 56.6245 65.9944 59.5694 62.6995C62.5142 59.4046 64.4358 55.2922 65.0911 50.8825C65.7464 46.4727 65.1061 41.9636 63.2511 37.9254C61.396 33.8871 58.4096 30.5011 54.6694 28.1955C51.2083 26.0619 47.2455 24.9422 43.2147 24.9488C42.6758 24.9497 42.2192 24.5355 42.195 23.9972Z"/>
</mask>
<path d="M42.195 23.9972C42.1709 23.4604 42.5862 23.0032 43.1236 23.0003C47.5331 22.9766 51.8708 24.1938 55.6563 26.5273C59.7196 29.0321 62.9641 32.7107 64.9794 37.098C66.9948 41.4852 67.6905 46.3839 66.9785 51.1748C66.2665 55.9656 64.1789 60.4333 60.9796 64.0129C57.7803 67.5926 53.613 70.1234 49.0048 71.2853C44.3965 72.4472 39.5542 72.188 35.0902 70.5405C30.6262 68.893 26.7411 65.9312 23.926 62.0297C21.2957 58.3842 19.7101 54.0713 19.336 49.5723C19.2924 49.0476 19.701 48.6016 20.2269 48.577C20.7542 48.5523 21.1993 48.9607 21.2449 49.4866C21.6011 53.5992 23.0574 57.5399 25.4631 60.874C28.0542 64.4652 31.6303 67.1914 35.7393 68.7078C39.8482 70.2243 44.3053 70.4628 48.547 69.3933C52.7887 68.3239 56.6245 65.9944 59.5694 62.6995C62.5142 59.4046 64.4358 55.2922 65.0911 50.8825C65.7464 46.4727 65.1061 41.9636 63.2511 37.9254C61.396 33.8871 58.4096 30.5011 54.6694 28.1955C51.2083 26.0619 47.2455 24.9422 43.2147 24.9488C42.6758 24.9497 42.2192 24.5355 42.195 23.9972Z" fill="url(#paint1_linear_1_28)" stroke="url(#paint2_linear_1_28)" stroke-width="2" mask="url(#path-2-inside-1_1_28)"/>
</g>
<g id="Ellipse 12">
<mask id="path-3-inside-2_1_28" fill="white">
<path d="M39.1352 13.0743C38.95 11.5253 40.0534 10.1068 41.6119 10.0367C48.5292 9.72597 55.4149 11.3887 61.4737 14.864C68.3535 18.8101 73.8054 24.8858 77.0306 32.2006C80.2558 39.5154 81.0846 47.6848 79.3957 55.5118C77.7068 63.3387 73.5889 70.4117 67.6455 75.6943C61.702 80.9769 54.2455 84.1913 46.3685 84.8666C38.4915 85.5418 30.6082 83.6425 23.8737 79.4467C17.1392 75.251 11.9077 68.9795 8.94561 61.5513C6.33159 54.9959 5.60637 47.8437 6.82401 40.92C7.09272 39.3921 8.63606 38.4869 10.1374 38.8778C11.6251 39.2652 12.5082 40.78 12.2602 42.2972C11.319 48.0554 11.9554 53.9847 14.1264 59.4292C16.6411 65.7356 21.0826 71.0599 26.8 74.622C32.5174 78.184 39.2102 79.7966 45.8975 79.2233C52.5849 78.65 58.9153 75.921 63.9611 71.4362C69.007 66.9515 72.503 60.9467 73.9368 54.3018C75.3706 47.6569 74.667 40.7213 71.9289 34.5112C69.1908 28.3011 64.5622 23.143 58.7215 19.7928C53.7074 16.9168 48.0262 15.5029 42.3034 15.6779C40.737 15.7257 39.3212 14.6304 39.1352 13.0743Z"/>
</mask>
<path d="M39.1352 13.0743C38.95 11.5253 40.0534 10.1068 41.6119 10.0367C48.5292 9.72597 55.4149 11.3887 61.4737 14.864C68.3535 18.8101 73.8054 24.8858 77.0306 32.2006C80.2558 39.5154 81.0846 47.6848 79.3957 55.5118C77.7068 63.3387 73.5889 70.4117 67.6455 75.6943C61.702 80.9769 54.2455 84.1913 46.3685 84.8666C38.4915 85.5418 30.6082 83.6425 23.8737 79.4467C17.1392 75.251 11.9077 68.9795 8.94561 61.5513C6.33159 54.9959 5.60637 47.8437 6.82401 40.92C7.09272 39.3921 8.63606 38.4869 10.1374 38.8778C11.6251 39.2652 12.5082 40.78 12.2602 42.2972C11.319 48.0554 11.9554 53.9847 14.1264 59.4292C16.6411 65.7356 21.0826 71.0599 26.8 74.622C32.5174 78.184 39.2102 79.7966 45.8975 79.2233C52.5849 78.65 58.9153 75.921 63.9611 71.4362C69.007 66.9515 72.503 60.9467 73.9368 54.3018C75.3706 47.6569 74.667 40.7213 71.9289 34.5112C69.1908 28.3011 64.5622 23.143 58.7215 19.7928C53.7074 16.9168 48.0262 15.5029 42.3034 15.6779C40.737 15.7257 39.3212 14.6304 39.1352 13.0743Z" fill="url(#paint3_linear_1_28)" stroke="url(#paint4_linear_1_28)" stroke-width="2" mask="url(#path-3-inside-2_1_28)"/>
</g>
<path id="Polygon 3" d="M9.25 35L17.0442 47.75H1.45577L9.25 35Z" fill="#9E65C6"/>
<g id="Vector 9">
<path fill-rule="evenodd" clip-rule="evenodd" d="M21.4953 20.0058C29.609 20.0058 30.3892 24.0523 30.2332 26.4128C30.0772 28.0988 28.2358 31.6733 21.4953 31.8081V20.0058ZM21.4953 31.8081V20.0058C23.2637 20.5116 29.4531 18.9942 30.2332 26.4128C29.6091 32.1453 23.2637 31.6957 21.4953 31.8081Z" fill="#9E65C6"/>
<path d="M30.2331 13.2616C30.2851 11.2946 28.6104 7.36047 21.4953 7.36047M21.4953 7.36047C14.3802 7.36047 12.3934 11.2946 12.2894 13.2616C11.9773 15.5097 13.3816 20.0058 21.4953 20.0058M21.4953 7.36047V20.0058M21.4953 20.0058C29.609 20.0058 30.3892 24.0523 30.2332 26.4128M21.4953 20.0058V31.8081M21.4953 20.0058C23.2637 20.5116 29.4531 18.9942 30.2332 26.4128M30.2332 26.4128C30.0772 28.0988 28.2358 31.6733 21.4953 31.8081M30.2332 26.4128C29.6091 32.1453 23.2637 31.6957 21.4953 31.8081M21.4953 31.8081C14.7548 31.943 12.5495 28.2674 12.2894 26.4128M21.4953 5V34" stroke="#9E65C6" stroke-width="4" stroke-linecap="round" stroke-linejoin="round"/>
</g>
</g>
<defs>
<linearGradient id="paint0_linear_1_28" x1="35.6218" y1="47.4667" x2="45.8148" y2="50.488" gradientUnits="userSpaceOnUse">
<stop stop-color="#9E65C6"/>
<stop offset="1" stop-color="#D8EFE3"/>
</linearGradient>
<linearGradient id="paint1_linear_1_28" x1="30.6346" y1="48.3167" x2="62.6787" y2="74.3692" gradientUnits="userSpaceOnUse">
<stop stop-color="#9E65C6"/>
<stop offset="1" stop-color="#D8EFE3"/>
</linearGradient>
<linearGradient id="paint2_linear_1_28" x1="30.6346" y1="48.3167" x2="62.6787" y2="74.3692" gradientUnits="userSpaceOnUse">
<stop stop-color="#9E65C6"/>
<stop offset="1" stop-color="#D8EFE3"/>
</linearGradient>
<linearGradient id="paint3_linear_1_28" x1="23.8013" y1="48.75" x2="72.9192" y2="88.9724" gradientUnits="userSpaceOnUse">
<stop stop-color="#9E65C6"/>
<stop offset="1" stop-color="#D8EFE3"/>
</linearGradient>
<linearGradient id="paint4_linear_1_28" x1="23.8013" y1="48.75" x2="72.9192" y2="88.9724" gradientUnits="userSpaceOnUse">
<stop stop-color="#9E65C6"/>
<stop offset="1" stop-color="#D8EFE3"/>
</linearGradient>
</defs>
</svg>
