<svg width="81" height="90" viewBox="0 0 81 90" fill="none" xmlns="http://www.w3.org/2000/svg">
<g id="icons">
<g id="Vector 7">
<path d="M41.0102 0C17.8102 0 14.6769 23.3333 16.0102 35H16.75H26.5103C25.6769 26.6667 27.4103 10 41.0102 10C54.6102 10 56.0102 26.6667 55.0103 35H64.75H66.0103C67.3436 23.3333 64.2102 0 41.0102 0Z" fill="url(#paint0_linear_1_25)"/>
<path d="M64.75 35H55.0103H26.5103H16.75C8.46573 35 1.75 41.7157 1.75 50V75C1.75 83.2843 8.46573 90 16.75 90H64.75C73.0343 90 79.75 83.2843 79.75 75V50C79.75 41.7157 73.0343 35 64.75 35Z" fill="url(#paint1_linear_1_25)"/>
</g>
<g id="Ellipse 10">
<path d="M46.75 58C46.75 60.2208 45.5434 62.1599 43.75 63.1973C43.4338 63.3802 43.0993 63.5351 42.75 63.6586C42.1244 63.8797 41.4513 64 40.75 64C40.0487 64 39.3756 63.8797 38.75 63.6586C38.4007 63.5351 38.0662 63.3802 37.75 63.1973C35.9566 62.1599 34.75 60.2208 34.75 58C34.75 54.6863 37.4363 52 40.75 52C44.0637 52 46.75 54.6863 46.75 58Z" fill="white"/>
<path d="M40.75 64C40.0487 64 39.3756 63.8797 38.75 63.6586C38.4007 63.5351 38.0662 63.3802 37.75 63.1973L36.75 73H44.75L43.75 63.1973C43.4338 63.3802 43.0993 63.5351 42.75 63.6586C42.1244 63.8797 41.4513 64 40.75 64Z" fill="white"/>
</g>
</g>
<defs>
<linearGradient id="paint0_linear_1_25" x1="20.25" y1="46.5" x2="77.25" y2="87.5" gradientUnits="userSpaceOnUse">
<stop stop-color="#9E65C6"/>
<stop offset="1" stop-color="#D8EFE3"/>
</linearGradient>
<linearGradient id="paint1_linear_1_25" x1="20.25" y1="46.5" x2="77.25" y2="87.5" gradientUnits="userSpaceOnUse">
<stop stop-color="#9E65C6"/>
<stop offset="1" stop-color="#D8EFE3"/>
</linearGradient>
</defs>
</svg>
